<?xml version="1.0" encoding="UTF-8" standalone="no"?>
<svg
   xmlns:dc="http://purl.org/dc/elements/1.1/"
   xmlns:cc="http://creativecommons.org/ns#"
   xmlns:rdf="http://www.w3.org/1999/02/22-rdf-syntax-ns#"
   xmlns:svg="http://www.w3.org/2000/svg"
   xmlns="http://www.w3.org/2000/svg"
   viewBox="0 0 1440 1440"
   height="1440"
   width="1440"
   xml:space="preserve"
   id="svg2"
   version="1.1"><metadata
     id="metadata8"><rdf:RDF><cc:Work
         rdf:about=""><dc:format>image/svg+xml</dc:format><dc:type
           rdf:resource="http://purl.org/dc/dcmitype/StillImage" /></cc:Work></rdf:RDF></metadata><defs
     id="defs6"><clipPath
       id="clipPath18"
       clipPathUnits="userSpaceOnUse"><path
         id="path16"
         d="M 0,1080 H 1080 V 0 H 0 Z" /></clipPath></defs><g
     transform="matrix(1.3333333,0,0,-1.3333333,0,1440)"
     id="g10"><g
       id="g12"><g
         clip-path="url(#clipPath18)"
         id="g14"><g
           transform="translate(140.7979,645.8301)"
           id="g20"><path
             id="path22"
             style="fill:#ffffff;fill-opacity:1;fill-rule:nonzero;stroke:none"
             d="m 0,0 c -0.054,2.697 1.053,5.289 3.007,7.148 l 282.98,269.35 c 36.724,35.506 90.922,47.068 138.392,28.2 19.345,-7.689 38.933,-20.952 57.634,-45.621 2.591,-3.418 2.189,-8.248 -0.916,-11.208 L 189.892,-29.667 c -0.119,-0.106 -0.238,-0.213 -0.355,-0.32 C 107.156,-100.24 73.597,-114.473 1.896,-3.222 1.237,-2.198 0.625,-1.125 0.002,-0.051 0.001,-0.05 0,-0.032 0,0" /></g><g
           transform="translate(719.2402,768.1401)"
           id="g24"><path
             id="path26"
             style="fill:#000000;fill-opacity:1;fill-rule:nonzero;stroke:none"
             d="m 0,0 -0.65,-0.65 c -0.43,-1.81 -1.31,-3.52 -2.63,-4.97 -27.821,-30.5 -155.34,-166.84 -375.03,-350.78 -225.41,-188.73 -399.73,86.56 -225.83,215.61 5.75,4.26 13.97,2.22 16.98,-4.27 17.25,-37.15 78.24,-138.35 194.95,-32.04 182.89,166.59 276.79,261.5 305.64,291.3 1.58,1.63 3.49,2.66 5.509,3.13 3.531,0.83 7.361,-0.08 10.151,-2.59 L 0,43.83 C 12.1,31.73 12.1,12.1 0,0" /></g><g
           transform="translate(719.2402,768.1401)"
           id="g28"><path
             id="path30"
             style="fill:none;stroke:#000000;stroke-width:3.70300007;stroke-linecap:butt;stroke-linejoin:miter;stroke-miterlimit:10;stroke-dasharray:none;stroke-opacity:1"
             d="m 0,0 -0.65,-0.65 c -0.43,-1.81 -1.31,-3.52 -2.63,-4.97 -27.821,-30.5 -155.34,-166.84 -375.03,-350.78 -225.41,-188.73 -399.73,86.56 -225.83,215.61 5.75,4.26 13.97,2.22 16.98,-4.27 17.25,-37.15 78.24,-138.35 194.95,-32.04 182.89,166.59 276.79,261.5 305.64,291.3 1.58,1.63 3.49,2.66 5.509,3.13 3.531,0.83 7.361,-0.08 10.151,-2.59 L 0,43.83 C 12.1,31.73 12.1,12.1 0,0 Z" /></g><g
           transform="translate(648.3301,882.8799)"
           id="g32"><path
             id="path34"
             style="fill:#000000;fill-opacity:1;fill-rule:nonzero;stroke:none"
             d="m 0,0 c -2.79,2.51 -6.62,3.42 -10.15,2.59 l 3.78,3.78 z" /></g><g
           transform="translate(648.3301,882.8799)"
           id="g36"><path
             id="path38"
             style="fill:none;stroke:#000000;stroke-width:3.70300007;stroke-linecap:butt;stroke-linejoin:miter;stroke-miterlimit:10;stroke-dasharray:none;stroke-opacity:1"
             d="m 0,0 c -2.79,2.51 -6.62,3.42 -10.15,2.59 l 3.78,3.78 z" /></g><g
           transform="translate(914.8574,394.5107)"
           id="g40"><path
             id="path42"
             style="fill:#ffffff;fill-opacity:1;fill-rule:nonzero;stroke:none"
             d="m 0,0 v -0.001 c -58.735,-58.734 -153.964,-58.734 -212.698,0 l -150.086,150.086 c -7.797,7.797 -7.797,20.439 0,28.236 l 186.725,186.726 c 8.817,8.816 23.11,8.816 31.925,0 L 0,220.913 C 61.004,159.91 61.004,61.003 0,0" /></g></g></g></g></svg>